<svg width="60" height="60" viewBox="0 0 60 60" fill="none" xmlns="http://www.w3.org/2000/svg">
<path d="M0 30C0 21.7187 2.92968 14.6484 8.78911 8.78905C14.6484 2.92968 21.7187 0 30 0C38.2812 0 45.3515 2.92968 51.2109 8.78905C57.0703 14.6484 60 21.7187 60 30C60 38.2812 57.0703 45.3515 51.2109 51.2109C45.3516 57.0703 38.2813 60 30 60C21.7187 60 14.6484 57.0703 8.78911 51.2109C2.92968 45.3516 0 38.2812 0 30ZM3.28125 30C3.28125 37.3438 5.89843 43.6328 11.1328 48.8672C16.3672 54.1015 22.6562 56.7188 30 56.7188C37.3438 56.7188 43.6328 54.1016 48.8672 48.8672C54.1016 43.6328 56.7188 37.3438 56.7188 30C56.7188 22.6562 54.1016 16.3672 48.8672 11.1328C43.6328 5.89843 37.3437 3.28125 30 3.28125C22.6562 3.28125 16.3672 5.89843 11.1328 11.1328C5.89843 16.3672 3.28125 22.6562 3.28125 30ZM11.7188 36.4453C11.5625 36.289 11.5625 36.1328 11.7188 35.9765C12.0312 35.664 12.4219 35.5468 12.8906 35.625C13.3594 35.7031 13.6328 35.7812 13.7109 35.8593C14.2578 36.0937 14.8633 36.621 15.5273 37.4414C16.1913 38.2617 16.7187 38.8281 17.1094 39.1406C18.9844 40.7031 20.8984 40.8203 22.8515 39.4921C23.0077 38.9453 23.2617 38.4765 23.6132 38.0858C23.9647 37.6952 24.2968 37.4218 24.6093 37.2655C24.9218 37.1093 25.4687 36.8749 26.25 36.5624C23.6718 36.328 21.582 35.8788 19.9804 35.2147C18.3789 34.5507 17.1093 33.7108 16.1718 32.6952C14.9218 31.289 14.1601 29.453 13.8866 27.1874C13.6131 24.9218 13.7889 22.8515 14.414 20.9765C14.8827 19.8046 15.5468 18.75 16.4061 17.8124C15.7811 15.8593 15.8983 13.6327 16.7577 11.1327C19.2577 11.289 21.5233 12.1484 23.5545 13.7109C27.4608 12.6952 31.5233 12.6562 35.742 13.5937C36.2888 13.2031 37.1287 12.7148 38.2615 12.1288C39.3943 11.5429 40.8201 11.2108 42.5388 11.1327C42.8513 11.9921 43.0662 13.0077 43.1834 14.1796C43.3006 15.3514 43.242 16.4452 43.0077 17.4608C44.8045 19.3358 45.742 21.8358 45.8201 24.9608C45.8201 27.4608 45.3905 29.5311 44.5311 31.1717C43.6717 32.8123 42.1483 34.1795 39.9608 35.2732C38.4764 35.9764 36.5233 36.406 34.1014 36.5623C35.1952 37.1092 35.996 37.6756 36.5038 38.2615C37.0116 38.8475 37.3437 39.7654 37.5 41.0154V44.7069L37.6171 48.2811C37.8515 48.6718 38.125 49.0038 38.4375 49.2773C38.75 49.5507 39.0234 49.746 39.2578 49.8632C39.4921 49.9804 39.5703 50.1562 39.4921 50.3906C39.414 50.6249 39.1015 50.7421 38.5546 50.7421C37.2265 50.7421 36.1718 50.2734 35.3906 49.3358C35.1562 48.9452 35.039 48.4765 35.039 47.9296V42.3046C35.039 41.6796 34.8828 41.2303 34.5703 40.9569C34.2578 40.6834 33.9453 40.5077 33.6328 40.4295V47.8123C33.6328 49.1405 33.789 49.9998 34.1015 50.3905C34.414 50.7811 34.6093 51.1718 34.6875 51.5623C34.7656 51.6405 34.707 51.699 34.5117 51.7381C34.3165 51.7771 33.9844 51.7186 33.5156 51.5623C32.5 51.328 31.7968 50.8006 31.4062 49.9803C31.0156 49.16 30.8203 48.281 30.8203 47.3435V40.0781H29.2968V47.3437C29.2968 48.2812 29.1015 49.1797 28.7108 50.039C28.164 51.1328 27.1484 51.7187 25.664 51.7968C25.4297 51.7187 25.3125 51.6406 25.3125 51.5625C25.3906 51.4843 25.625 51.0938 26.0156 50.3906C26.0937 50.2344 26.1914 49.9219 26.3086 49.4531C26.4258 48.9844 26.4844 48.4375 26.4844 47.8125V40.4296C26.1719 40.5078 25.8789 40.6835 25.6055 40.957C25.332 41.2305 25.1953 41.6797 25.1953 42.3047V47.9297C25.1953 48.4765 25.0781 48.9453 24.8437 49.3359C24.1406 50.2734 23.0859 50.7423 21.6797 50.7423C21.1329 50.7423 20.8204 50.6251 20.7422 50.3907C20.664 50.2344 20.6836 50.0977 20.8009 49.9805C20.9181 49.8633 21.0938 49.7266 21.3282 49.5703C21.5626 49.4141 21.7188 49.2968 21.797 49.2188C22.1095 48.9844 22.3438 48.6719 22.5001 48.2813C22.7345 47.9688 22.793 47.1485 22.6758 45.8203C22.5587 44.4922 22.5391 43.6328 22.6172 43.2422C20.5859 43.9453 18.5157 43.5937 16.4062 42.1875C15.7812 41.5625 15.1562 40.664 14.5312 39.4922C14.0625 38.6328 13.125 37.6171 11.7188 36.4453V36.4453Z" fill="black"/>
</svg>
